<svg xmlns="http://www.w3.org/2000/svg" xmlns:xlink="http://www.w3.org/1999/xlink" width="106" height="106" x="0" y="0" version="1.1" viewBox="-3 -3.2 106 106" xml:space="preserve" style="enable-background:new -3 -3.2 106 106"><g id="ltc-alt"><polygon points="46.9 65.9 50.3 52.9 58.5 49.9 60.6 42.2 60.5 42.1 52.4 45 58.2 23.2 41.8 23.2 34.2 51.7 27.9 54 25.8 61.9 32.1 59.5 27.6 76.3 71.4 76.3 74.2 65.9"/><path d="M50,7.8c23.2,0,42,18.8,42,42s-18.8,42-42,42S8,72.9,8,49.8C8,26.6,26.8,7.8,50,7.8 M50-0.2c-27.6,0-50,22.4-50,50 s22.4,50,50,50c27.6,0,50-22.4,50-50S77.6-0.2,50-0.2L50-0.2z"/></g></svg>